# xmcd
#
# Track frame offsets: 
#        150
#        17925
#        32097
#        47020
#        63482
#        79030
#        96812
#        117747
#        131915
#        148365
#        163400
#        181142
#
# Disc length: 2689 seconds
#
# Revision: 26
# Processed by: cddbd v1.5.2PL0 Copyright (c) Steve Scherf et al.
# Submitted via: ExactAudioCopy v1.3
#
DISCID=b30a7f0c
DTITLE=Kelly Clarkson - Breakaway
DYEAR=2004
DGENRE=Pop
TTITLE0=Breakaway
TTITLE1=Since U Been Gone
TTITLE2=Behind These Hazel Eyes
TTITLE3=Because Of You
TTITLE4=Gone
TTITLE5=Addicted
TTITLE6=Where Is Your Heart
TTITLE7=Walk Away
TTITLE8=You Found Me
TTITLE9=I Hate Myself For Losing You
TTITLE10=Hear Me
TTITLE11=Beautiful Disaster (Live)
EXTD=by Diddl
EXTT0=
EXTT1=
EXTT2=
EXTT3=
EXTT4=
EXTT5=
EXTT6=
EXTT7=
EXTT8=
EXTT9=
EXTT10=
EXTT11=
PLAYORDER=
